<svg width="15" height="13" viewBox="0 0 15 13" fill="none" xmlns="http://www.w3.org/2000/svg">
<path d="M3.92957 0.49218C5.54384 0.49218 7.1551 1.54726 7.49811 2.77498C7.75111 1.60602 9.40062 0.50388 11.0621 0.50388C12.3547 0.50388 13.6542 1.17052 14.3097 2.9913C15.9209 7.46824 8.05961 11.7671 7.49785 12.299C6.9361 11.6295 -0.924728 7.5452 0.687538 2.9939C1.33254 1.17312 2.63206 0.49192 3.92957 0.49218ZM3.92957 0H3.92907C2.22555 0 0.88379 1.02882 0.248284 2.8223C-1.19873 6.9069 4.05532 10.4868 6.29834 12.0149C6.6596 12.2611 7.06885 12.5401 7.14935 12.6269L7.46285 13L7.81186 12.6641C7.86986 12.611 8.13811 12.4324 8.39761 12.2598C10.5486 10.8277 16.2622 7.02312 14.7479 2.8171C14.1064 1.03402 12.7629 0.01144 11.0624 0.01144C9.62638 0.01144 8.20586 0.72982 7.48436 1.71548C6.73885 0.715 5.33633 0.00026 3.92957 0V0Z" fill="#9B9B9B"/>
</svg>
